# xmcd
#
# Track frame offsets:
#	150
#	14654
#	36802
#	51169
#	70028
#	93009
#	114254
#	137410
#	157792
#	178722
#	206552
#	219796
#	237411
#	261669
#	281414
#	305111
#	320611
#
# Disc length: 4550 seconds
#
# Revision: 1
# Processed by: cddbd v1.5.2PL0 Copyright (c) Steve Scherf et al.
# Submitted via: audiograbber 1.83.01
#
DISCID=ec11c411
DTITLE=Eric Clapton - Complete Clapton [CD2)
DYEAR=2007
DGENRE=Blues
TTITLE0=I've Got A Rock 'n' Roll Heart
TTITLE1=She's Waiting
TTITLE2=Forever Man
TTITLE3=It's In the Way That You Use It
TTITLE4=Miss You
TTITLE5=Pretending
TTITLE6=Bad Love
TTITLE7=Tears In Heaven
TTITLE8=Layla (unplugged)
TTITLE9=Running On Faith (unplugged)
TTITLE10=Motherless Child
TTITLE11=Change The World
TTITLE12=My Father's Eyes
TTITLE13=Riding With The King
TTITLE14=Sweet Home Chicago
TTITLE15=If I Had Possession Over Judgement Day
TTITLE16=Ride The River
EXTD=
EXTT0=
EXTT1=
EXTT2=
EXTT3=
EXTT4=
EXTT5=
EXTT6=
EXTT7=
EXTT8=
EXTT9=
EXTT10=
EXTT11=
EXTT12=
EXTT13=
EXTT14=
EXTT15=
EXTT16=
PLAYORDER=
